HIERARCHY
ROOT Hips
{
 OFFSET 0.000000 0.000000 0.000000
 CHANNELS 6 Xposition Yposition Zposition Yrotation Xrotation Zrotation
 JOINT Chest
 {
  OFFSET 0.000000 9.585900 0.002600
  CHANNELS 3 Yrotation Xrotation Zrotation
  JOINT Chest2
  {
   OFFSET 0.000000 9.601200 -0.005300
   CHANNELS 3 Yrotation Xrotation Zrotation
   JOINT Chest3
   {
    OFFSET 0.000000 9.561800 0.000000
    CHANNELS 3 Yrotation Xrotation Zrotation
    JOINT Chest4
    {
     OFFSET 0.000000 9.552100 0.000000
     CHANNELS 3 Yrotation Xrotation Zrotation
     JOINT Neck
     {
      OFFSET 0.000000 14.453000 0.000000
      CHANNELS 3 Yrotation Xrotation Zrotation
      JOINT Head
      {
       OFFSET 0.000000 8.936500 -0.011300
       CHANNELS 3 Yrotation Xrotation Zrotation
       End Site
       {
        OFFSET 0.000000 17.073600 -0.006000
       }
      }
     }
     JOINT RightCollar
     {
      OFFSET -2.921100 9.558500 0.000000
      CHANNELS 3 Yrotation Xrotation Zrotation
      JOINT RightShoulder
      {
       OFFSET -13.519700 0.000000 0.000000
       CHANNELS 3 Yrotation Xrotation Zrotation
       JOINT RightElbow
       {
        OFFSET 0.000000 -29.696600 0.000000
        CHANNELS 3 Yrotation Xrotation Zrotation
        JOINT RightWrist
        {
         OFFSET 0.000000 -24.004700 0.000000
         CHANNELS 3 Yrotation Xrotation Zrotation
         End Site
         {
          OFFSET 0.000000 -17.728500 0.000000
         }
        }
       }
      }
     }
     JOINT LeftCollar
     {
      OFFSET 2.921100 9.558500 0.000000
      CHANNELS 3 Yrotation Xrotation Zrotation
      JOINT LeftShoulder
      {
       OFFSET 13.519700 0.000000 0.000000
       CHANNELS 3 Yrotation Xrotation Zrotation
       JOINT LeftElbow
       {
        OFFSET 0.000000 -29.696600 0.000000
        CHANNELS 3 Yrotation Xrotation Zrotation
        JOINT LeftWrist
        {
         OFFSET 0.000000 -24.004700 0.000000
         CHANNELS 3 Yrotation Xrotation Zrotation
         End Site
         {
          OFFSET 0.000000 -17.728500 0.000000
         }
        }
       }
      }
     }
    }
   }
  }
 }
 JOINT RightHip
 {
  OFFSET -7.771700 -0.012900 -0.001300
  CHANNELS 3 Yrotation Xrotation Zrotation
  JOINT RightKnee
  {
   OFFSET 0.000000 -40.869800 0.001200
   CHANNELS 3 Yrotation Xrotation Zrotation
   JOINT RightAnkle
   {
    OFFSET 0.000000 -39.717900 0.002100
    CHANNELS 3 Yrotation Xrotation Zrotation
    JOINT RightToe
    {
     OFFSET 0.000000 -4.965400 11.033500
     CHANNELS 3 Yrotation Xrotation Zrotation
     End Site
     {
      OFFSET 0.000000 -1.423100 5.872300
     }
    }
   }
  }
 }
 JOINT LeftHip
 {
  OFFSET 7.771700 -0.012900 -0.001300
  CHANNELS 3 Yrotation Xrotation Zrotation
  JOINT LeftKnee
  {
   OFFSET 0.000000 -40.869800 0.001200
   CHANNELS 3 Yrotation Xrotation Zrotation
   JOINT LeftAnkle
   {
    OFFSET 0.000000 -39.717900 0.002100
    CHANNELS 3 Yrotation Xrotation Zrotation
    JOINT LeftToe
    {
     OFFSET 0.000000 -4.965400 11.033500
     CHANNELS 3 Yrotation Xrotation Zrotation
     End Site
     {
      OFFSET 0.000000 -1.423100 5.872300
     }
    }
   }
  }
 }
}
MOTION
Frames: 14
Frame Time: 0.008333
0.000000 85.388000 0.000000 0.000000 -5.767877 0.000000 0.000000 11.653817 0.000000 0.000000 -5.885947 0.000000 0.000000 -0.000000 0.000000 0.000000 -0.000000 0.000000 0.000000 12.528835 0.000000 0.000000 0.711642 0.000000 0.000000 -0.000000 0.000000 0.000000 0.000000 -90.000000 0.000000 -2.309062 0.000000 0.000000 2.309062 0.000000 0.000000 -0.000000 0.000000 0.000000 -0.000000 90.000000 0.000000 -2.309062 0.000000 0.000000 2.309062 0.000000 0.000000 8.520406 0.000000 0.000000 1.905762 0.000000 -0.000000 -4.658285 0.000000 0.000000 -0.000000 0.000000 0.000000 8.520406 0.000000 0.000000 1.905762 0.000000 -0.000000 -4.658285 0.000000 0.000000 -0.000000 0.000000
-13.618892 58.866549 33.965166 166.149982 -39.435121 -2.076389 4.830888 23.501783 2.322074 0.674310 3.614096 0.142295 1.088515 5.807829 0.245383 3.944318 19.796321 1.349807 1.686599 13.168315 1.053991 2.770128 -11.344091 1.318010 6.100873 -0.522071 0.014116 41.746287 -43.984871 -25.977851 33.290022 -5.903897 -4.419323 7.159005 2.500789 -35.490136 -8.041868 -4.347921 -0.769108 -78.833579 -32.256150 16.639389 -10.406417 5.717427 33.325143 -28.767702 6.718708 25.304288 14.482891 -32.740959 6.034534 -5.111943 68.131552 -1.643187 4.245730 2.573524 4.810479 -0.017891 0.116405 -0.009517 -3.836706 -33.551076 2.981509 27.390138 69.483561 24.405883 -20.173103 -3.147350 -7.789546 -0.296674 -0.714282 -0.109827
-13.617489 58.864695 33.966910 166.154247 -39.426821 -2.078879 4.827247 23.495750 2.326023 0.673991 3.612146 0.139395 1.087718 5.806790 0.248588 3.942050 19.793964 1.350123 1.683675 13.168717 1.050328 2.769796 -11.343169 1.313817 6.108192 -0.508075 0.007597 41.743497 -43.992366 -25.981851 33.262291 -5.914441 -4.428044 7.135971 2.513356 -35.517416 -8.045635 -4.345614 -0.775624 -78.819130 -32.259211 16.640801 -10.423153 5.718531 33.307816 -28.776557 6.725569 25.296509 14.479797 -32.751904 6.033986 -5.101356 68.133556 -1.634411 4.240711 2.576860 4.812224 -0.017750 0.113720 -0.010953 -3.839949 -33.562610 2.976963 27.395447 69.478625 24.421586 -20.175130 -3.129274 -7.805731 -0.291752 -0.718725 -0.106816
-13.615307 58.863426 33.967878 166.152105 -39.424824 -2.079266 4.827695 23.494442 2.330538 0.675499 3.611379 0.136664 1.086822 5.806786 0.249897 3.939894 19.792414 1.352095 1.682365 13.168818 1.046907 2.768997 -11.341357 1.311031 6.108156 -0.498628 0.001422 41.739057 -43.997645 -25.970309 33.259024 -5.917175 -4.440041 7.139654 2.517093 -35.519454 -8.047043 -4.345706 -0.781240 -78.821207 -32.260629 16.641988 -10.421717 5.726850 33.294367 -28.775622 6.734679 25.296993 14.480080 -32.756436 6.035006 -5.094953 68.134860 -1.624948 4.239244 2.578388 4.809376 -0.015428 0.113028 -0.011191 -3.832820 -33.567367 2.971948 27.403321 69.476418 24.441580 -20.174692 -3.113609 -7.816118 -0.279523 -0.709755 -0.109670
-13.613270 58.862523 33.968071 166.147430 -39.426542 -2.075245 4.829775 23.496337 2.330613 0.673715 3.612675 0.139960 1.087515 5.805639 0.247327 3.938013 19.790911 1.352147 1.681568 13.167657 1.042755 2.765447 -11.345133 1.298702 6.109432 -0.492605 -0.003072 41.695302 -44.007190 -25.904122 33.247323 -5.916113 -4.483048 7.156117 2.524914 -35.532706 -8.053141 -4.345653 -0.786927 -78.825983 -32.260530 16.645042 -10.404071 5.740219 33.280867 -28.782325 6.742483 25.301800 14.483275 -32.756994 6.033933 -5.097638 68.137735 -1.623568 4.239301 2.578747 4.805305 -0.016562 0.112351 -0.010506 -3.816096 -33.568312 2.963712 27.424259 69.473261 24.471725 -20.185102 -3.095562 -7.817155 -0.290483 -0.714411 -0.113099
-13.610447 58.862516 33.967109 166.137028 -39.436440 -2.070147 4.838065 23.505180 2.333378 0.672060 3.613701 0.144082 1.086628 5.804984 0.247088 3.936876 19.792406 1.349044 1.682008 13.165514 1.038883 2.765812 -11.353211 1.287690 6.112121 -0.488782 -0.007908 41.660243 -44.019589 -25.861267 33.191761 -5.936854 -4.508129 7.189576 2.563136 -35.575376 -8.053246 -4.346049 -0.790543 -78.834994 -32.263349 16.644475 -10.400231 5.749456 33.274838 -28.782289 6.763214 25.293567 14.480890 -32.748113 6.042615 -5.106563 68.138929 -1.634849 4.250659 2.576388 4.798791 -0.016282 0.113505 -0.007155 -3.785300 -33.556894 2.946482 27.438647 69.468856 24.508762 -20.184991 -3.094719 -7.815213 -0.307148 -0.706198 -0.122101
-13.608439 58.861483 33.966954 166.136935 -39.436175 -2.067874 4.836403 23.507355 2.334401 0.671640 3.613687 0.143241 1.086017 5.805100 0.247251 3.934840 19.792878 1.349315 1.681685 13.162342 1.033092 2.766584 -11.358387 1.281653 6.113936 -0.463803 -0.010722 41.652318 -44.045610 -25.853843 33.174445 -5.941567 -4.521602 7.218486 2.577394 -35.585837 -8.058844 -4.343782 -0.788254 -78.821829 -32.281274 16.642478 -10.405223 5.764315 33.262217 -28.778171 6.772353 25.308551 14.480742 -32.750188 6.041973 -5.124374 68.143033 -1.647231 4.243882 2.575367 4.789361 -0.013896 0.113060 -0.005575 -3.778636 -33.555753 2.939347 27.434689 69.464924 24.511185 -20.187927 -3.084377 -7.815812 -0.303636 -0.706331 -0.126353
-13.606350 58.860938 33.965983 166.131993 -39.440452 -2.061605 4.836497 23.515437 2.335790 0.673053 3.611222 0.139102 1.084060 5.805750 0.250053 3.934758 19.792847 1.347176 1.680499 13.157117 1.026188 2.765899 -11.362112 1.277999 6.111311 -0.446149 -0.011783 41.647743 -44.072460 -25.833039 33.159681 -5.932093 -4.536263 7.244759 2.590856 -35.600426 -8.057881 -4.342862 -0.782871 -78.822312 -32.296202 16.638663 -10.388760 5.780962 33.251208 -28.785577 6.772056 25.330205 14.484844 -32.746637 6.038649 -5.131082 68.146589 -1.649308 4.249548 2.570877 4.783372 -0.014342 0.115224 -0.004492 -3.771329 -33.552397 2.934636 27.429974 69.461209 24.513768 -20.209909 -3.053245 -7.829229 -0.282467 -0.735005 -0.119574
-13.603594 58.859976 33.965562 166.128424 -39.440598 -2.060409 4.835630 23.516266 2.339219 0.674555 3.611564 0.136618 1.084248 5.805290 0.250995 3.933155 19.794170 1.348547 1.676379 13.148448 1.020412 2.764792 -11.380558 1.258426 6.103068 -0.427868 -0.014016 41.665180 -44.107202 -25.813633 33.158331 -5.902264 -4.553908 7.220027 2.624036 -35.645157 -8.054948 -4.345010 -0.782343 -78.823403 -32.305207 16.635184 -10.378497 5.789811 33.247226 -28.795284 6.777683 25.371358 14.483022 -32.748421 6.040430 -5.129879 68.149560 -1.646110 4.255422 2.570204 4.777809 -0.016542 0.114723 -0.003733 -3.769145 -33.551830 2.935731 27.427539 69.457698 24.515896 -20.221004 -3.028957 -7.837594 -0.321039 -0.741177 -0.121136
-13.600112 58.858412 33.965999 166.124791 -39.435031 -2.063899 4.833405 23.510779 2.346715 0.678571 3.611408 0.136974 1.084781 5.804980 0.248778 3.931499 19.792842 1.354306 1.663397 13.120915 1.004685 2.759368 -11.422918 1.208057 6.086994 -0.406744 -0.018930 41.718458 -44.141311 -25.819807 33.138274 -5.865798 -4.561017 7.200579 2.652707 -35.689715 -8.052336 -4.345177 -0.785714 -78.828715 -32.314735 16.630537 -10.359380 5.802018 33.246586 -28.800527 6.776180 25.410728 14.473051 -32.757918 6.049917 -5.125839 68.152188 -1.643586 4.254768 2.576426 4.771588 -0.013834 0.111402 -0.004693 -3.776445 -33.559581 2.944533 27.439331 69.456069 24.527588 -20.216406 -2.994860 -7.848071 -0.331307 -0.743162 -0.123314
-13.595873 58.855944 33.967750 166.134846 -39.420505 -2.081521 4.821604 23.496909 2.359797 0.669797 3.609700 0.142486 1.082645 5.802031 0.250185 3.936613 19.793619 1.348552 1.655819 13.107323 0.989039 2.761108 -11.435722 1.186652 6.082584 -0.392285 -0.027648 41.772266 -44.174056 -25.827670 33.040798 -5.806520 -4.548585 7.242375 2.660085 -35.753413 -8.046877 -4.343967 -0.766448 -78.819610 -32.362057 16.601495 -10.288435 5.853006 33.229960 -28.834699 6.740252 25.503293 14.458240 -32.776370 6.057814 -5.125160 68.151930 -1.637555 4.261093 2.582996 4.767328 -0.018855 0.108376 -0.006261 -3.796388 -33.572694 2.954576 27.422285 69.440621 24.532118 -20.230862 -2.958254 -7.894100 -0.310954 -0.770228 -0.102669
-13.592761 58.854521 33.967801 166.132536 -39.416764 -2.081533 4.818445 23.493724 2.365515 0.668468 3.607751 0.142863 1.080609 5.799174 0.250800 3.920006 19.785538 1.360099 1.657200 13.099635 0.956522 2.768572 -11.424376 1.181705 6.092887 -0.367348 -0.050627 41.837666 -44.211774 -25.841491 32.975450 -5.734455 -4.539989 7.256872 2.651425 -35.800701 -8.027099 -4.337396 -0.779034 -78.785071 -32.431405 16.521376 -10.309370 5.913229 33.273289 -28.839168 6.734765 25.523728 14.458930 -32.783110 6.060603 -5.148744 68.154706 -1.658821 4.267721 2.584059 4.766313 -0.020003 0.107620 -0.006983 -3.832944 -33.572717 2.967944 27.468448 69.428928 24.556379 -20.213990 -2.924521 -7.904687 -0.309046 -0.779219 -0.105935
-13.589413 58.852356 33.968884 166.140720 -39.405692 -2.090551 4.810913 23.482523 2.371443 0.666036 3.605387 0.144939 1.076392 5.793171 0.253458 3.913246 19.780366 1.361988 1.652119 13.088441 0.935887 2.763833 -11.443406 1.149794 6.086427 -0.335868 -0.058348 41.927547 -44.258851 -25.864813 32.909415 -5.648104 -4.534733 7.273272 2.654914 -35.846361 -8.017778 -4.327189 -0.787236 -78.774614 -32.490926 16.468686 -10.243680 6.023246 33.238150 -28.842706 6.715377 25.690587 14.449518 -32.796717 6.062076 -5.161069 68.157181 -1.666078 4.270384 2.585596 4.762685 -0.019487 0.107271 -0.008840 -3.870713 -33.579518 2.981645 27.501159 69.416815 24.574843 -20.205457 -2.899483 -7.912648 -0.296637 -0.753221 -0.112618
-13.586108 58.850808 33.969185 166.137919 -39.400937 -2.091083 4.810663 23.476684 2.375897 0.666930 3.605231 0.143217 1.068876 5.781843 0.261114 3.905934 19.773813 1.365418 1.647566 13.079770 0.913064 2.753700 -11.506749 1.065532 6.075536 -0.291201 -0.062046 42.034131 -44.311255 -25.895193 32.843993 -5.547283 -4.533002 7.284028 2.670785 -35.895246 -8.008452 -4.313106 -0.798239 -78.794230 -32.569277 16.413741 -10.179663 6.172923 33.232059 -28.864017 6.656861 25.853599 14.455422 -32.805853 6.062321 -5.174260 68.160478 -1.672239 4.267544 2.589846 4.762544 -0.020252 0.105014 -0.011152 -3.906187 -33.582545 2.994492 27.575785 69.396434 24.640072 -20.244057 -2.850613 -7.934754 -0.285154 -0.760809 -0.113777
